<?xml version="1.0" encoding="iso-8859-1"?>
<!-- Generator: Adobe Illustrator 19.0.0, SVG Export Plug-In . SVG Version: 6.00 Build 0)  -->
<svg version="1.1" id="Capa_1" xmlns="http://www.w3.org/2000/svg" xmlns:xlink="http://www.w3.org/1999/xlink" x="0px" y="0px"
	 viewBox="0 0 512 512" style="enable-background:new 0 0 512 512;" xml:space="preserve">
<rect x="223.937" y="139.773" style="fill:#7366AA;" width="64.125" height="64.125"/>
<rect x="223.937" y="203.898" style="fill:#B6B3C6;" width="64.125" height="224.438"/>
<rect x="223.937" y="203.898" style="fill:#A4A0B8;" width="64.125" height="24.047"/>
<path style="fill:#EDBC53;" d="M424.329,251.992c-15.512-12.459-36.838-27.215-64.125-40.078
	c-27.465-12.946-52.575-20.019-72.141-24.047c0-10.688,0-21.375,0-32.063c19.566-4.028,44.676-11.101,72.141-24.047
	c27.287-12.863,48.613-27.619,64.125-40.078C424.329,145.116,424.329,198.555,424.329,251.992z"/>
<path style="fill:#F09C48;" d="M288.063,163.82c0,8.016,0,16.031,0,24.047c19.566,4.028,44.676,11.101,72.141,24.047
	c27.287,12.863,48.613,27.619,64.125,40.078c0-8.016,0-16.031,0-24.047c-15.512-12.459-36.838-27.215-64.125-40.078
	C332.739,174.921,307.629,167.848,288.063,163.82z"/>
<rect x="400.282" y="83.663" style="fill:#E57D37;" width="24.047" height="176.344"/>
<path style="fill:#EDBC53;" d="M87.671,251.992c15.512-12.459,36.838-27.215,64.125-40.078
	c27.465-12.946,52.575-20.019,72.141-24.047c0-10.688,0-21.375,0-32.063c-19.566-4.028-44.676-11.101-72.141-24.047
	c-27.287-12.863-48.613-27.619-64.125-40.078C87.671,145.116,87.671,198.555,87.671,251.992z"/>
<path style="fill:#F09C48;" d="M87.671,227.945c0,8.016,0,16.031,0,24.047c15.512-12.459,36.838-27.215,64.125-40.078
	c27.465-12.946,52.575-20.019,72.141-24.047c0-8.016,0-16.031,0-24.047c-19.566,4.028-44.676,11.101-72.141,24.047
	C124.509,200.73,103.184,215.486,87.671,227.945z"/>
<rect x="87.671" y="83.663" style="fill:#E57D37;" width="24.047" height="176.344"/>
<path d="M486.322,109.843c-2.936-2.934-7.692-2.935-10.628,0.001c-2.935,2.935-2.934,7.693,0,10.627
	c13.72,13.72,21.277,31.961,21.277,51.365s-7.557,37.646-21.277,51.365c-2.735,2.735-2.918,7.255-0.4,10.196
	c2.81,3.282,7.97,3.488,11.027,0.432C502.88,217.27,512,195.254,512,171.836S502.88,126.401,486.322,109.843z"/>
<path d="M469.318,126.847c-2.935-2.934-7.693-2.934-10.627,0c-2.935,2.936-2.935,7.693,0,10.628
	c9.178,9.178,14.233,21.381,14.233,34.361c0,12.98-5.055,25.183-14.233,34.361c-2.736,2.736-2.918,7.255-0.4,10.197
	c2.809,3.281,7.971,3.487,11.027,0.432c12.017-12.018,18.635-27.996,18.635-44.99S481.335,138.864,469.318,126.847z"/>
<path d="M452.314,143.85c-2.935-2.934-7.693-2.934-10.627,0c-2.935,2.936-2.935,7.693,0,10.628c4.636,4.636,7.19,10.8,7.19,17.357
	c0,6.557-2.553,12.721-7.19,17.357c-2.736,2.736-2.918,7.255-0.4,10.197c2.809,3.281,7.971,3.487,11.027,0.432
	c7.475-7.475,11.592-17.413,11.592-27.985S459.789,151.326,452.314,143.85z"/>
<path d="M15.029,171.836c0-19.403,7.557-37.646,21.277-51.365c2.935-2.936,2.935-7.693,0-10.627
	c-2.934-2.935-7.692-2.936-10.627-0.001C9.12,126.401,0,148.418,0,171.836s9.12,45.434,25.678,61.993
	c3.056,3.055,8.217,2.851,11.027-0.432c2.519-2.942,2.337-7.461-0.4-10.197C22.586,209.48,15.029,191.239,15.029,171.836z"/>
<path d="M39.076,171.836c0-12.98,5.055-25.183,14.233-34.361c2.935-2.936,2.935-7.693,0-10.628c-2.935-2.934-7.693-2.934-10.627,0
	c-12.017,12.017-18.635,27.995-18.635,44.989s6.618,32.971,18.635,44.989c3.056,3.055,8.217,2.851,11.027-0.432
	c2.519-2.942,2.337-7.461-0.4-10.197C44.131,197.019,39.076,184.816,39.076,171.836z"/>
<path d="M70.313,143.849c-2.935-2.934-7.693-2.934-10.627,0c-7.476,7.476-11.593,17.415-11.593,27.987s4.117,20.51,11.592,27.986
	c3.056,3.055,8.217,2.851,11.027-0.432c2.519-2.942,2.337-7.461-0.4-10.197c-4.636-4.636-7.189-10.8-7.189-17.357
	c0-6.558,2.553-12.722,7.19-17.358C73.248,151.542,73.248,146.785,70.313,143.849z"/>
<path d="M424.329,76.149h-24.047c-4.15,0-7.515,3.364-7.515,7.515v21.48c-11.442,7.351-23.469,14.019-35.768,19.817
	c-19.654,9.266-40.277,16.476-61.422,21.485v-6.672c0-4.151-3.365-7.515-7.515-7.515h-64.125c-4.15,0-7.515,3.364-7.515,7.515v6.672
	c-21.143-5.01-41.765-12.22-61.422-21.485c-12.295-5.795-24.322-12.464-35.768-19.818V83.663c0-4.151-3.365-7.515-7.515-7.515
	H87.671c-4.15,0-7.515,3.364-7.515,7.515v176.344c0,4.151,3.365,7.515,7.515,7.515h24.047c4.15,0,7.515-3.364,7.515-7.515v-21.5
	c0.047-0.029,0.097-0.048,0.143-0.078c11.397-7.314,23.384-13.948,35.625-19.719c19.654-9.266,40.276-16.476,61.422-21.486v231.111
	c0,4.151,3.365,7.515,7.515,7.515h64.125c4.15,0,7.515-3.364,7.515-7.515V295.41c0-4.151-3.365-7.515-7.515-7.515
	s-7.515,3.364-7.515,7.515v125.412h-49.096V211.413h49.096v48.595c0,4.151,3.365,7.515,7.515,7.515s7.515-3.364,7.515-7.515v-62.782
	c21.145,5.009,41.767,12.22,61.422,21.485c12.3,5.798,24.32,12.467,35.768,19.822v21.475c0,4.151,3.365,7.515,7.515,7.515h24.047
	c4.15,0,7.515-3.364,7.515-7.515V83.663C431.843,79.512,428.479,76.149,424.329,76.149z M104.204,252.493h-9.018V91.178h9.018
	V252.493z M148.592,205.117c-10.007,4.717-19.845,9.991-29.359,15.717v-97.991c9.516,5.727,19.353,10.995,29.359,15.713
	c21.671,10.215,44.461,18.047,67.83,23.317v19.93C193.051,187.069,170.261,194.902,148.592,205.117z M231.452,196.384v-49.096
	h49.096v49.096H231.452z M363.408,205.117c-21.669-10.215-44.46-18.047-67.83-23.317v-19.93
	c23.372-5.269,46.161-13.101,67.83-23.317c10.009-4.718,19.847-9.988,29.359-15.712v97.984
	C383.254,215.101,373.417,209.835,363.408,205.117z M416.814,252.493h-9.018V91.178h9.018V252.493z"/>
<g>
</g>
<g>
</g>
<g>
</g>
<g>
</g>
<g>
</g>
<g>
</g>
<g>
</g>
<g>
</g>
<g>
</g>
<g>
</g>
<g>
</g>
<g>
</g>
<g>
</g>
<g>
</g>
<g>
</g>
</svg>
