<?xml version="1.0" encoding="iso-8859-1"?>
<!-- Generator: Adobe Illustrator 19.0.0, SVG Export Plug-In . SVG Version: 6.00 Build 0)  -->
<svg version="1.1" id="Capa_1" xmlns="http://www.w3.org/2000/svg" xmlns:xlink="http://www.w3.org/1999/xlink" x="0px" y="0px"
	 viewBox="0 0 512.001 512.001" style="enable-background:new 0 0 512.001 512.001;" xml:space="preserve">
<path style="fill:#FFC850;" d="M385.988,275.901L262.875,95.232c-2.813-4.127-8.898-4.127-11.71,0L128.051,275.901
	c-5.413,7.943-4.449,18.605,2.3,25.45l58.654,59.478c3.552,3.602,5.545,8.459,5.545,13.519v33.293h124.94v-33.293
	c0-5.059,1.991-9.916,5.544-13.517l58.655-59.48C390.436,294.507,391.4,283.844,385.988,275.901z"/>
<path style="fill:#F9B428;" d="M209.018,360.83l-58.654-59.478c-6.749-6.844-7.713-17.507-2.301-25.45l118.962-174.576l-4.152-6.093
	c-2.813-4.127-8.898-4.127-11.71,0L128.051,275.901c-5.413,7.943-4.449,18.605,2.301,25.45l58.654,59.478
	c3.552,3.602,5.545,8.459,5.545,13.519v33.293h20.013v-33.293C214.562,369.288,212.57,364.432,209.018,360.83z"/>
<path style="fill:#E59F23;" d="M267.383,284.274h-20.727c-10.333,0-18.711,8.378-18.711,18.711s8.378,18.711,18.711,18.711h20.727
	c10.333,0,18.711-8.378,18.711-18.711C286.094,292.652,277.715,284.274,267.383,284.274z"/>
<path style="fill:#D38913;" d="M267.383,301.905h-20.727c-6.695,0-12.553-3.528-15.86-8.816c-1.796,2.873-2.852,6.257-2.852,9.896
	c0,10.334,8.378,18.711,18.711,18.711h20.727c10.333,0,18.711-8.377,18.711-18.711c0-3.638-1.055-7.023-2.852-9.896
	C279.935,298.377,274.078,301.905,267.383,301.905z"/>
<path style="fill:#E4EAF8;" d="M206.21,460.735v33.091c0,6.019,4.879,10.898,10.898,10.898h79.821
	c6.019,0,10.898-4.879,10.898-10.898v-33.091H206.21z"/>
<g>
	<path style="fill:#D8DCE5;" d="M226.223,493.826v-33.091H206.21v33.091c0,6.019,4.879,10.898,10.898,10.898h20.013
		C231.103,504.724,226.223,499.845,226.223,493.826z"/>
	<path style="fill:#D8DCE5;" d="M324.201,406.759H189.837c-6.604,0-12.008,5.404-12.008,12.008v30.52
		c0,6.604,5.404,12.008,12.008,12.008h134.364c6.604,0,12.008-5.404,12.008-12.008v-30.52
		C336.209,412.163,330.806,406.759,324.201,406.759z"/>
</g>
<path style="fill:#C3C8D1;" d="M324.201,441.282H189.837c-6.604,0-12.008-5.404-12.008-12.008v20.013
	c0,6.604,5.404,12.008,12.008,12.008h134.364c6.604,0,12.008-5.404,12.008-12.008v-20.013
	C336.209,435.878,330.806,441.282,324.201,441.282z"/>
<path style="fill:#FF5050;" d="M65.445,209.56H44.281c-6.483,0-11.739,5.255-11.739,11.739v21.163
	c0,6.483,5.255,11.739,11.739,11.739h21.164c6.483,0,11.739-5.255,11.739-11.739v-21.163
	C77.183,214.816,71.928,209.56,65.445,209.56z"/>
<path style="fill:#ED3A3A;" d="M52.556,242.462v-21.163c0-6.483,5.255-11.739,11.739-11.739h1.152h-0.001H44.281
	c-6.483,0-11.739,5.255-11.739,11.739v21.163c0,6.483,5.255,11.739,11.739,11.739h20.013
	C57.811,254.201,52.556,248.944,52.556,242.462z"/>
<circle style="fill:#FF5050;" cx="54.863" cy="30.05" r="22.32"/>
<path style="fill:#ED3A3A;" d="M52.556,30.054c0-8.728,5.013-16.281,12.314-19.95c-3.011-1.513-6.407-2.37-10.007-2.37
	c-12.327,0-22.321,9.993-22.321,22.32s9.994,22.321,22.321,22.321c3.599,0,6.996-0.857,10.007-2.37
	C57.569,46.336,52.556,38.783,52.556,30.054z"/>
<path style="fill:#FF5050;" d="M467.649,209.56h-21.163c-6.483,0-11.739,5.255-11.739,11.739v21.163
	c0,6.483,5.255,11.739,11.739,11.739h21.163c6.483,0,11.739-5.255,11.739-11.739v-21.163
	C479.387,214.816,474.132,209.56,467.649,209.56z"/>
<path style="fill:#ED3A3A;" d="M454.76,242.462v-21.163c0-6.483,5.255-11.739,11.739-11.739h1.152h-0.001h-21.164
	c-6.483,0-11.739,5.255-11.739,11.739v21.163c0,6.483,5.255,11.739,11.739,11.739h20.013
	C460.015,254.201,454.76,248.944,454.76,242.462z"/>
<path style="fill:#FF5050;" d="M267.102,7.734h-21.163c-6.483,0-11.739,5.255-11.739,11.739v21.163
	c0,6.483,5.255,11.739,11.739,11.739h21.163c6.483,0,11.739-5.255,11.739-11.739V19.473C278.841,12.99,273.586,7.734,267.102,7.734z
	"/>
<path style="fill:#ED3A3A;" d="M254.214,40.636V19.473c0-6.483,5.255-11.739,11.739-11.739h1.152h-0.001H245.94
	c-6.483,0-11.739,5.255-11.739,11.739v21.163c0,6.483,5.255,11.739,11.739,11.739h20.013
	C259.469,52.375,254.214,47.118,254.214,40.636z"/>
<circle style="fill:#FF5050;" cx="456.965" cy="30.25" r="22.32"/>
<path style="fill:#ED3A3A;" d="M454.655,30.249c0-8.728,5.013-16.281,12.314-19.95c-3.011-1.513-6.407-2.37-10.007-2.37
	c-12.327,0-22.321,9.993-22.321,22.32s9.994,22.32,22.321,22.32c3.599,0,6.996-0.857,10.007-2.37
	C459.668,46.53,454.655,38.977,454.655,30.249z"/>
<path d="M467.686,201.826h-4.08c-10.353-72.554-58.613-136.122-129.309-164.495h93.835c3.336,12.825,15.014,22.321,28.868,22.321
	c16.446,0,29.826-13.38,29.826-29.826S473.444,0,456.999,0c-13.854,0-25.531,9.496-28.868,22.321H286.383v-3.078
	C286.383,8.632,277.75,0,267.14,0h-21.163c-10.611,0-19.244,8.633-19.244,19.243v3.077H83.768C80.431,9.496,68.755,0,54.9,0
	C38.455,0,25.075,13.38,25.075,29.826S38.455,59.652,54.9,59.652c13.854,0,25.531-9.496,28.867-22.321h95.052
	C108.152,65.692,59.866,129.245,49.511,201.826h-5.192c-10.611,0-19.244,8.633-19.244,19.243v21.163
	c0,10.611,8.633,19.243,19.244,19.243h21.163c10.611,0,19.243-8.633,19.243-19.243v-21.163c0-10.611-8.633-19.243-19.243-19.243
	h-0.81c12.779-82.94,79.132-149.349,162.06-162.203v0.783c0,10.611,8.633,19.244,19.244,19.244h21.163
	c10.611,0,19.243-8.633,19.243-19.244v-0.783c82.928,12.853,149.28,79.263,162.06,162.203h-1.92
	c-10.611,0-19.244,8.633-19.244,19.243v21.163c0,10.611,8.633,19.243,19.244,19.243h21.162c10.611,0,19.244-8.633,19.244-19.243
	v-21.163C486.929,210.459,478.297,201.826,467.686,201.826z M69.715,221.07v21.163c0,2.335-1.899,4.233-4.233,4.233H44.318
	c-2.335,0-4.234-1.898-4.234-4.233V221.07c0-2.335,1.899-4.233,4.234-4.233h21.163C67.816,216.836,69.715,218.735,69.715,221.07z
	 M456.999,15.01c8.169,0,14.816,6.646,14.816,14.816s-6.646,14.816-14.816,14.816c-7.865,0-14.3-6.166-14.77-13.915
	c0.035-0.295,0.059-0.594,0.059-0.9s-0.024-0.604-0.059-0.9C442.699,21.176,449.133,15.01,456.999,15.01z M54.9,44.641
	c-8.169,0-14.816-6.646-14.816-14.816S46.731,15.01,54.9,15.01s14.815,6.646,14.815,14.816S63.069,44.641,54.9,44.641z
	 M267.139,44.641h-21.163c-2.335,0-4.234-1.899-4.234-4.234c0-8.133,0-13.271,0-21.163c0-2.335,1.899-4.233,4.234-4.233h21.163
	c2.335,0,4.233,1.898,4.233,4.233c0,7.911,0,13.026,0,21.163C271.373,42.741,269.474,44.641,267.139,44.641z M471.919,242.233
	c0,2.335-1.899,4.233-4.234,4.233h-21.162c-2.335,0-4.234-1.898-4.234-4.233V221.07c0-2.335,1.899-4.233,4.234-4.233h21.162
	c2.335,0,4.234,1.898,4.234,4.233V242.233z"/>
<path d="M375.928,298.34l-56.201,56.992c-4.969,5.038-7.705,11.711-7.705,18.787v25.788h-109.93v-25.788
	c0-7.078-2.737-13.75-7.705-18.788l-58.654-59.478c-4.219-4.279-4.825-10.988-1.442-15.954l115.261-169.146V276.54h-2.858
	c-14.456,0-26.216,11.761-26.216,26.215c0,14.456,11.761,26.216,26.216,26.216h20.727c14.456,0,26.216-11.761,26.216-26.216
	c0-14.455-11.761-26.215-26.216-26.215h-2.858V110.752l110.432,162.062c2.335,3.424,7.002,4.309,10.429,1.976
	c3.425-2.335,4.31-7.004,1.976-10.429L269.113,90.777c-5.787-8.493-18.349-8.457-24.114,0L121.886,271.446
	c-7.412,10.876-6.084,25.574,3.158,34.946l58.654,59.478c2.181,2.211,3.382,5.141,3.382,8.248v26.012
	c-9.437,1.363-16.719,9.481-16.719,19.29v29.076c0,10.759,8.754,19.513,19.513,19.513h8.868v25.586
	c0,10.149,8.255,18.404,18.403,18.404h21.345c4.145,0,7.505-3.359,7.505-7.505c0-4.146-3.36-7.505-7.505-7.505h-21.344
	c-1.871,0-3.393-1.522-3.393-3.394v-25.586h86.608v25.586c0,1.871-1.522,3.394-3.393,3.394h-23.454
	c-4.146,0-7.505,3.359-7.505,7.505c0,4.146,3.359,7.505,7.505,7.505h23.454c10.148,0,18.403-8.255,18.403-18.404v-25.586h8.868
	c10.759,0,19.513-8.754,19.513-19.513v-29.076c0-9.809-7.283-17.927-16.72-19.29v-26.012c0-3.107,1.201-6.036,3.382-8.247
	l56.201-56.993c2.911-2.951,2.878-7.702-0.073-10.612C383.59,295.355,378.837,295.388,375.928,298.34z M278.626,302.756
	c0,6.179-5.027,11.206-11.206,11.206h-20.727c-6.179,0-11.206-5.027-11.206-11.206c0-6.179,5.027-11.205,11.206-11.205h20.727
	C273.599,291.55,278.626,296.577,278.626,302.756z M328.741,419.422v29.076c0,2.441-2.062,4.503-4.503,4.503
	c-4.93,0-129.518,0-134.364,0c-2.441,0-4.503-2.062-4.503-4.503v-29.076c0-2.441,2.062-4.503,4.503-4.503
	c4.841,0,129.479,0,134.364,0C326.679,414.919,328.741,416.98,328.741,419.422z"/>
<g>
</g>
<g>
</g>
<g>
</g>
<g>
</g>
<g>
</g>
<g>
</g>
<g>
</g>
<g>
</g>
<g>
</g>
<g>
</g>
<g>
</g>
<g>
</g>
<g>
</g>
<g>
</g>
<g>
</g>
</svg>
