<?xml version="1.0" encoding="iso-8859-1"?>
<!-- Generator: Adobe Illustrator 19.0.0, SVG Export Plug-In . SVG Version: 6.00 Build 0)  -->
<svg version="1.1" id="Capa_1" xmlns="http://www.w3.org/2000/svg" xmlns:xlink="http://www.w3.org/1999/xlink" x="0px" y="0px"
	 viewBox="0 0 512 512" style="enable-background:new 0 0 512 512;" xml:space="preserve">
<g>
	<circle style="fill:#EC5569;" cx="179.5" cy="484.5" r="20"/>
	<circle style="fill:#EC5569;" cx="332.5" cy="484.5" r="20"/>
</g>
<rect x="112.5" y="7.5" style="fill:#6E6B87;" width="130" height="309.11"/>
<rect x="212.5" y="7.5" style="fill:#625F78;" width="30" height="309.11"/>
<rect x="271.5" y="7.5" style="fill:#6E6B87;" width="130" height="309.11"/>
<rect x="371.5" y="7.5" style="fill:#625F78;" width="30" height="309.11"/>
<rect x="112.5" y="50.06" style="fill:#FAD87C;" width="130" height="98"/>
<rect x="212.5" y="50.06" style="fill:#FEBE40;" width="30" height="98"/>
<rect x="271.5" y="50.06" style="fill:#FAD87C;" width="130" height="98"/>
<rect x="371.5" y="50.06" style="fill:#FEBE40;" width="30" height="98"/>
<path style="fill:#CAEEFC;" d="M441,308.061C441,325.699,426.663,340,408.969,340c-17.684,0-288.265,0-305.949,0
	S71,325.699,71,308.061c0-17.639,14.337-31.939,32.021-31.939c5.455,0,10.59,1.365,15.076,3.767c-0.26-1.774-0.39-3.577-0.39-5.421
	c0-20.808,16.915-37.679,37.775-37.679c9.561,0,18.283,3.538,24.937,9.387c-0.04-0.727-0.05-1.455-0.05-2.192
	c0-29.817,24.238-53.983,54.13-53.983c23.089,0,42.811,14.43,50.583,34.749c6.394-10.085,17.684-16.782,30.532-16.782
	c19.942,0,36.107,16.124,36.107,36.015c0,4.235-0.73,8.301-2.078,12.078c3.537-1.674,7.503-2.611,11.679-2.611
	c15.116,0,27.375,12.228,27.375,27.305c0,0.907-0.04,1.814-0.13,2.701c5.535-4.584,12.648-7.335,20.401-7.335
	C426.663,276.121,441,290.422,441,308.061z"/>
<path style="fill:#89CEEA;" d="M408.969,276.277c-7.753,0-14.866,2.75-20.401,7.335c0.09-0.887,0.13-1.794,0.13-2.701
	c0-15.078-12.259-27.305-27.375-27.305c-4.176,0-8.142,0.937-11.679,2.611c1.349-3.777,2.078-7.843,2.078-12.078
	c0-19.891-16.165-36.015-36.107-36.015c-12.848,0-24.138,6.697-30.532,16.782c-7.773-20.32-27.495-34.75-50.583-34.75
	c-18.901,0-35.531,9.668-45.213,24.31c6.065-2.344,12.652-3.644,19.547-3.644c18.735,0,35.252,9.501,44.969,23.94
	c3.052,4.536,9.249,5.407,13.511,1.982c6.192-4.976,14.068-7.954,22.636-7.954c19.941,0,36.107,16.124,36.107,36.015
	c0,0.042,0,0.085,0,0.127c-0.018,5.188,4.103,9.361,9.291,9.34c0.103,0,0.207,0,0.31,0.001
	c14.811,0.116,21.697,10.653,24.811,19.212c1.747,4.799,7.007,7.166,11.802,5.408c3.439-1.261,7.156-1.948,11.032-1.948
	c17.694,0,32.031,14.3,32.031,31.939c0,3.851-0.684,7.543-1.936,10.962c15.595-2.152,27.602-15.49,27.602-31.63
	C441,290.577,426.663,276.277,408.969,276.277z"/>
<g>
	<circle style="fill:#EC5569;" cx="27.5" cy="406.24" r="20"/>
	<circle style="fill:#EC5569;" cx="484.5" cy="406.24" r="20"/>
	<circle style="fill:#EC5569;" cx="256" cy="445" r="20"/>
</g>
<circle cx="301.69" cy="78.7" r="8.157"/>
<circle cx="301.69" cy="99.06" r="8.157"/>
<circle cx="301.69" cy="119.43" r="8.157"/>
<path d="M329.146,86.196H374.5c4.143,0,7.5-3.357,7.5-7.5s-3.357-7.5-7.5-7.5h-45.354c-4.143,0-7.5,3.357-7.5,7.5
	S325.003,86.196,329.146,86.196z"/>
<path d="M329.146,106.563H374.5c4.143,0,7.5-3.357,7.5-7.5s-3.357-7.5-7.5-7.5h-45.354c-4.143,0-7.5,3.357-7.5,7.5
	S325.003,106.563,329.146,106.563z"/>
<path d="M382,119.522c0-4.143-3.357-7.5-7.5-7.5h-45.354c-4.143,0-7.5,3.357-7.5,7.5s3.357,7.5,7.5,7.5H374.5
	C378.643,127.022,382,123.665,382,119.522z"/>
<circle cx="142.67" cy="78.7" r="8.157"/>
<circle cx="142.67" cy="99.06" r="8.157"/>
<circle cx="142.67" cy="119.43" r="8.157"/>
<path d="M215.486,71.196h-45.354c-4.143,0-7.5,3.357-7.5,7.5s3.357,7.5,7.5,7.5h45.354c4.143,0,7.5-3.357,7.5-7.5
	S219.629,71.196,215.486,71.196z"/>
<path d="M215.486,91.563h-45.354c-4.143,0-7.5,3.357-7.5,7.5s3.357,7.5,7.5,7.5h45.354c4.143,0,7.5-3.357,7.5-7.5
	S219.629,91.563,215.486,91.563z"/>
<path d="M215.486,112.022h-45.354c-4.143,0-7.5,3.357-7.5,7.5s3.357,7.5,7.5,7.5h45.354c4.143,0,7.5-3.357,7.5-7.5
	S219.629,112.022,215.486,112.022z"/>
<path d="M484.5,378.739c-12.563,0-23.178,8.472-26.452,20h-70.853V347.5h21.774c21.797,0,39.53-17.692,39.53-39.439
	c0-21.737-17.717-39.422-39.5-39.439V7.5l0,0l0,0c0-4.143-3.357-7.5-7.5-7.5h-130c-4.143,0-7.5,3.357-7.5,7.5l0,0v182.584l0,0
	c-4.402-2.406-9.101-4.292-14-5.578l0,0V7.5l0,0c0-4.143-3.357-7.5-7.5-7.5h-130c-4.143,0-7.5,3.357-7.5,7.5l0,0v152l0,0
	c0,4.143,3.357,7.5,7.5,7.5s7.5-3.357,7.5-7.5v-3.937h115v26.945c-0.167-0.001-0.333-0.008-0.5-0.008
	c-30.283,0-55.535,21.9-60.675,50.66c-5.727-2.534-11.967-3.872-18.343-3.872c-14.365,0-27.182,6.715-35.482,17.158V192
	c0-4.143-3.357-7.5-7.5-7.5s-7.5,3.357-7.5,7.5v76.673c-0.659-0.033-1.319-0.052-1.979-0.052c-21.792,0-39.521,17.692-39.521,39.439
	s17.73,39.44,39.522,39.44h21.784v51.239H53.952c-3.274-11.528-13.889-20-26.452-20c-15.163,0-27.5,12.337-27.5,27.5
	s12.337,27.5,27.5,27.5c12.563,0,23.178-8.472,26.452-20h78.353c4.143,0,7.5-3.357,7.5-7.5V347.5H172v4.333
	c0,4.143,3.357,7.5,7.5,7.5s7.5-3.357,7.5-7.5V347.5h61.5v71.048c-11.528,3.274-20,13.889-20,26.452c0,15.163,12.337,27.5,27.5,27.5
	s27.5-12.337,27.5-27.5c0-12.563-8.472-23.178-20-26.452V347.5H325v110.548c-11.528,3.274-20,13.889-20,26.452
	c0,15.163,12.337,27.5,27.5,27.5s27.5-12.337,27.5-27.5c0-12.563-8.472-23.178-20-26.452V347.5h32.195v58.739
	c0,4.143,3.357,7.5,7.5,7.5h78.353c3.274,11.528,13.889,20,26.452,20c15.163,0,27.5-12.337,27.5-27.5S499.663,378.739,484.5,378.739
	z M235,15v27.563H120V15H235z M120,140.563v-83h115v83H120z M27.5,418.739c-6.893,0-12.5-5.607-12.5-12.5s5.607-12.5,12.5-12.5
	s12.5,5.607,12.5,12.5S34.393,418.739,27.5,418.739z M268.5,445c0,6.893-5.607,12.5-12.5,12.5s-12.5-5.607-12.5-12.5
	s5.607-12.5,12.5-12.5S268.5,438.107,268.5,445z M345,484.5c0,6.893-5.607,12.5-12.5,12.5s-12.5-5.607-12.5-12.5
	s5.607-12.5,12.5-12.5S345,477.607,345,484.5z M315.615,200.468c-10.844,0-21.034,3.938-28.892,10.894
	c-2.243-3.55-4.84-6.836-7.724-9.828v-45.97h72.823c4.143,0,7.5-3.357,7.5-7.5s-3.357-7.5-7.5-7.5H279v-83h115v83h-9.833
	c-4.143,0-7.5,3.357-7.5,7.5s3.357,7.5,7.5,7.5H394v113.03c-4.953-13.212-17.732-22.644-32.677-22.644
	c-0.72,0-1.436,0.021-2.147,0.064c0.031-0.676,0.047-1.353,0.047-2.032C359.223,219.988,339.66,200.468,315.615,200.468z M394,15
	v27.563H279V15H394z M78.5,308.061c0-13.476,11-24.439,24.521-24.439c4.029,0,8.019,0.995,11.535,2.879
	c2.498,1.338,5.534,1.154,7.852-0.474s3.521-4.422,3.11-7.224c-0.206-1.408-0.311-2.867-0.311-4.336
	c0-16.641,13.581-30.179,30.275-30.179c7.372,0,14.47,2.671,19.985,7.52c0.006,0.006,0.014,0.01,0.02,0.015
	c6.522,5.732,10.263,13.985,10.263,22.643c0,7.36-2.688,14.449-7.567,19.959c-2.747,3.102-2.459,7.841,0.642,10.587
	c1.428,1.265,3.202,1.886,4.97,1.886c2.072,0,4.136-0.854,5.617-2.527c7.313-8.256,11.339-18.876,11.339-29.904
	c0-11.813-4.655-23.107-12.856-31.512c0.553-25.156,21.239-45.454,46.605-45.454c18.074,0,34.637,10.64,42.241,26.798
	c-3.094,6.078-4.737,12.802-4.737,19.688c0,14.887,7.502,28.583,20.067,36.638c1.254,0.803,2.655,1.187,4.041,1.187
	c2.47,0,4.889-1.22,6.321-3.453c2.235-3.487,1.22-8.127-2.267-10.362c-8.242-5.283-13.163-14.258-13.163-24.009
	c0-5.405,1.522-10.662,4.401-15.204c0.003-0.006,0.008-0.01,0.011-0.016c5.279-8.327,14.325-13.298,24.198-13.298
	c15.774,0,28.607,12.792,28.607,28.515c0,3.289-0.553,6.505-1.643,9.556c-1.02,2.856-0.219,6.046,2.029,8.082
	c2.247,2.036,5.502,2.518,8.242,1.22c2.649-1.254,5.5-1.89,8.472-1.89c10.959,0,19.875,8.885,19.875,19.806
	c0,0.689-0.031,1.344-0.092,1.944c-0.307,3.027,1.247,5.94,3.932,7.373s5.97,1.102,8.314-0.841
	c4.369-3.618,9.915-5.611,15.617-5.611c13.526,0,24.53,10.964,24.53,24.439s-11,24.437-24.526,24.437H103.021
	C89.5,332.5,78.5,321.536,78.5,308.061z M484.5,418.739c-6.893,0-12.5-5.607-12.5-12.5s5.607-12.5,12.5-12.5s12.5,5.607,12.5,12.5
	S491.393,418.739,484.5,418.739z"/>
<path d="M187,458.048v-74.215c0-4.143-3.357-7.5-7.5-7.5s-7.5,3.357-7.5,7.5v74.215c-11.528,3.274-20,13.889-20,26.452
	c0,15.163,12.337,27.5,27.5,27.5s27.5-12.337,27.5-27.5C207,471.937,198.528,461.322,187,458.048z M179.5,497
	c-6.893,0-12.5-5.607-12.5-12.5s5.607-12.5,12.5-12.5s12.5,5.607,12.5,12.5S186.393,497,179.5,497z"/>
<g>
</g>
<g>
</g>
<g>
</g>
<g>
</g>
<g>
</g>
<g>
</g>
<g>
</g>
<g>
</g>
<g>
</g>
<g>
</g>
<g>
</g>
<g>
</g>
<g>
</g>
<g>
</g>
<g>
</g>
</svg>
