<?xml version="1.0" encoding="iso-8859-1"?>
<!-- Generator: Adobe Illustrator 19.0.0, SVG Export Plug-In . SVG Version: 6.00 Build 0)  -->
<svg version="1.1" id="Capa_1" xmlns="http://www.w3.org/2000/svg" xmlns:xlink="http://www.w3.org/1999/xlink" x="0px" y="0px"
	 viewBox="0 0 511.999 511.999" style="enable-background:new 0 0 511.999 511.999;" xml:space="preserve">
<path style="fill:#5C6376;" d="M398.719,38.04v435.92c0,16.87-13.67,30.54-30.53,30.54h-224.38c-16.86,0-30.53-13.67-30.53-30.54
	V38.04c0-16.87,13.67-30.54,30.53-30.54h224.38C385.049,7.5,398.719,21.17,398.719,38.04z"/>
<path style="fill:#4C5568;" d="M398.722,38.04v435.92c0,16.87-13.67,30.54-30.53,30.54h-28c16.86,0,30.53-13.67,30.53-30.54V38.04
	c0-16.87-13.67-30.54-30.53-30.54h28C385.052,7.5,398.722,21.17,398.722,38.04z"/>
<path style="fill:#707784;" d="M171.809,504.5h-28c-16.86,0-30.53-13.67-30.53-30.54V38.04c0-16.87,13.67-30.54,30.53-30.54h28
	c-16.86,0-30.53,13.67-30.53,30.54v435.92C141.279,490.83,154.949,504.5,171.809,504.5z"/>
<rect x="113.279" y="61.82" style="fill:#D1D9E8;" width="285.44" height="396.79"/>
<rect x="113.279" y="61.822" style="fill:#E2E9F2;" width="28" height="396.79"/>
<rect x="370.719" y="61.82" style="fill:#BCC7D8;" width="28" height="396.79"/>
<rect x="113.279" y="61.822" style="fill:#F7B41F;" width="285.45" height="36.777"/>
<rect x="370.719" y="61.822" style="fill:#EAA213;" width="28" height="36.777"/>
<rect x="113.279" y="61.822" style="fill:#F4BF56;" width="28" height="36.777"/>
<g>
	<path style="fill:#50596D;" d="M398.722,184.807h9.593c4.578,0,8.289,3.361,8.289,7.507v127.371c0,4.146-3.711,7.507-8.289,7.507
		h-9.593V184.807z"/>
	<path style="fill:#50596D;" d="M113.276,119.182h-9.593c-4.578,0-8.289-3.361-8.289-7.507V95.647c0-4.146,3.711-7.507,8.289-7.507
		h9.593V119.182z"/>
	<path style="fill:#50596D;" d="M113.276,168.182h-9.593c-4.578,0-8.289-3.361-8.289-7.507v-16.027c0-4.146,3.711-7.507,8.289-7.507
		h9.593V168.182z"/>
	<path style="fill:#50596D;" d="M113.276,429.167h-9.593c-4.578,0-8.289-3.361-8.289-7.507v-16.027c0-4.146,3.711-7.507,8.289-7.507
		h9.593V429.167z"/>
</g>
<rect x="140.999" y="153.78" style="fill:#F7B41F;" width="230" height="230"/>
<circle style="fill:#FBD51A;" cx="309.409" cy="278.46" r="40.25"/>
<polygon style="fill:#64DDE0;" points="371.059,229.88 370.999,383.78 140.999,383.78 140.999,273 163.999,250 215.389,198.6 
	313.999,297.21 355.059,248.76 "/>
<path d="M408.315,177.308h-2.094v-24.646c0-4.143-3.357-7.5-7.5-7.5s-7.5,3.357-7.5,7.5v298.451h-33.162c-4.143,0-7.5,3.357-7.5,7.5
	s3.357,7.5,7.5,7.5h33.163v7.853c0,12.701-10.333,23.035-23.035,23.035H143.812c-12.702,0-23.035-10.334-23.035-23.035v-7.853
	h206.829c4.143,0,7.5-3.357,7.5-7.5s-3.357-7.5-7.5-7.5h-206.83V106.1h270.445V123c0,4.143,3.357,7.5,7.5,7.5s7.5-3.357,7.5-7.5
	V38.035C406.222,17.063,389.159,0,368.187,0H143.812c-20.973,0-38.035,17.063-38.035,38.035V80.64h-2.094
	c-8.706,0-15.789,6.732-15.789,15.007v16.026c0,8.275,7.083,15.008,15.789,15.008h2.094v2.959h-2.094
	c-8.706,0-15.789,6.732-15.789,15.007v16.026c0,8.275,7.083,15.008,15.789,15.008h2.094v214.943h-2.094
	c-8.706,0-15.789,6.732-15.789,15.008v16.026c0,8.275,7.083,15.008,15.789,15.008h2.094v37.298
	c0,20.973,17.063,38.035,38.035,38.035h224.375c20.973,0,38.035-17.063,38.035-38.035V334.692h2.094
	c8.706,0,15.789-6.732,15.789-15.007V192.314C424.104,184.04,417.021,177.308,408.315,177.308z M120.776,91.1V69.322h270.445V91.1
	H120.776z M143.812,15h224.375c12.702,0,23.035,10.334,23.035,23.035v16.287H120.776V38.035C120.776,25.334,131.109,15,143.812,15z
	 M103.683,111.682c-0.409,0-0.669-0.135-0.789-0.227V95.866c0.12-0.091,0.38-0.226,0.789-0.226h2.094v16.041L103.683,111.682
	L103.683,111.682z M103.683,160.682c-0.409,0-0.669-0.135-0.789-0.227v-15.589c0.12-0.091,0.38-0.226,0.789-0.226h2.094v16.041
	h-2.094V160.682z M103.683,421.667c-0.409,0-0.669-0.135-0.789-0.227v-15.589c0.12-0.092,0.38-0.227,0.789-0.227h2.094v16.042
	L103.683,421.667L103.683,421.667z M409.104,319.467c-0.121,0.091-0.38,0.226-0.789,0.226h-2.094V192.308h2.094
	c0.409,0,0.668,0.135,0.789,0.226V319.467z"/>
<path d="M244.189,43.005h24.969c4.143,0,7.5-3.357,7.5-7.5s-3.357-7.5-7.5-7.5h-24.969c-4.143,0-7.5,3.357-7.5,7.5
	S240.047,43.005,244.189,43.005z"/>
<path d="M215.848,43.005h1.012c4.143,0,7.5-3.357,7.5-7.5s-3.357-7.5-7.5-7.5h-1.012c-4.143,0-7.5,3.357-7.5,7.5
	S211.705,43.005,215.848,43.005z"/>
<path d="M244.189,472.707c-4.143,0-7.5,3.357-7.5,7.5s3.357,7.5,7.5,7.5h24.969c4.143,0,7.5-3.357,7.5-7.5s-3.357-7.5-7.5-7.5
	H244.189z"/>
<path d="M378.499,153.78c0-4.143-3.357-7.5-7.5-7.5h-230c-4.143,0-7.5,3.357-7.5,7.5v31.027c0,4.143,3.357,7.5,7.5,7.5
	s7.5-3.357,7.5-7.5V161.28h215v46.93h-51.341c-4.143,0-7.5,3.357-7.5,7.5s3.357,7.5,7.5,7.5h51.341v3.988l-17.463,20.607
	c-8.952-10.735-22.23-17.095-36.627-17.095c-13.599,0-26.514,5.896-35.484,15.819L220.696,193.3
	c-1.407-1.406-3.314-2.196-5.304-2.196s-3.896,0.79-5.304,2.196l-61.589,61.59v-39.557c0-4.143-3.357-7.5-7.5-7.5
	s-7.5,3.357-7.5,7.5V383.78c0,4.143,3.357,7.5,7.5,7.5h230c4.143,0,7.5-3.357,7.5-7.5V153.78z M309.409,245.71
	c10.765,0,20.618,5.187,26.711,13.796l-22.577,26.641l-28.985-28.986C290.727,249.998,299.816,245.71,309.409,245.71z
	 M215.393,209.21l93.303,93.304c1.41,1.409,3.318,2.196,5.304,2.196c0.103,0,0.206-0.002,0.309-0.007
	c2.095-0.086,4.058-1.045,5.413-2.645l31.218-36.838c0.071-0.08,0.14-0.161,0.207-0.244l12.354-14.578V376.28h-215V276.105
	L215.393,209.21z"/>
<path d="M329.087,327.89c4.143,0,7.5-3.357,7.5-7.5s-3.357-7.5-7.5-7.5h-0.088c-4.143,0-7.456,3.357-7.456,7.5
	S324.944,327.89,329.087,327.89z"/>
<path d="M239.587,350.71c4.143,0,7.5-3.357,7.5-7.5s-3.357-7.5-7.5-7.5h-0.088c-4.143,0-7.456,3.357-7.456,7.5
	S235.444,350.71,239.587,350.71z"/>
<path d="M285.087,311.21c4.143,0,7.5-3.357,7.5-7.5s-3.357-7.5-7.5-7.5h-0.088c-4.143,0-7.456,3.357-7.456,7.5
	S280.944,311.21,285.087,311.21z"/>
<path d="M178.499,285.96c4.143,0,7.5-3.357,7.5-7.5s-3.357-7.5-7.5-7.5h-0.088c-4.143,0-7.456,3.357-7.456,7.5
	S174.356,285.96,178.499,285.96z"/>
<path d="M214.087,267.76c4.143,0,7.5-3.357,7.5-7.5s-3.357-7.5-7.5-7.5h-0.088c-4.143,0-7.456,3.357-7.456,7.5
	S209.944,267.76,214.087,267.76z"/>
<path d="M304.539,199.21c4.143,0,7.5-3.357,7.5-7.5s-3.357-7.5-7.5-7.5h-40.881c-4.143,0-7.5,3.357-7.5,7.5s3.357,7.5,7.5,7.5
	H304.539z"/>
<g>
</g>
<g>
</g>
<g>
</g>
<g>
</g>
<g>
</g>
<g>
</g>
<g>
</g>
<g>
</g>
<g>
</g>
<g>
</g>
<g>
</g>
<g>
</g>
<g>
</g>
<g>
</g>
<g>
</g>
</svg>
