<?xml version="1.0" encoding="iso-8859-1"?>
<!-- Generator: Adobe Illustrator 19.0.0, SVG Export Plug-In . SVG Version: 6.00 Build 0)  -->
<svg xmlns="http://www.w3.org/2000/svg" xmlns:xlink="http://www.w3.org/1999/xlink" version="1.1" id="Layer_1" x="0px" y="0px" viewBox="0 0 512 512" style="enable-background:new 0 0 512 512;" xml:space="preserve" width="512" height="512">
<g id="XMLID_1880_">
	<g id="XMLID_2067_">
		<g id="XMLID_269_">
			<path id="XMLID_270_" style="fill:#E2FFFE;" d="M412.327,134.158V384.62c0,3.153-2.552,5.705-5.706,5.705H105.379     c-3.153,0-5.705-2.552-5.705-5.705V134.158c0-6.896,5.588-12.483,12.473-12.483h287.698     C406.729,121.675,412.327,127.262,412.327,134.158z"/>
			<path id="XMLID_271_" style="fill:#B0D1CF;" d="M412.327,134.158v49.655H99.673v-49.655c0-6.896,5.588-12.483,12.473-12.483     h287.698C406.729,121.675,412.327,127.262,412.327,134.158z"/>
			<path id="XMLID_2088_" style="fill:#5089DD;" d="M412.322,168.801H99.673v-34.645c0-6.892,5.587-12.48,12.48-12.48h287.689     c6.892,0,12.48,5.587,12.48,12.48V168.801z"/>
		</g>
		<g id="XMLID_469_">
			<g id="XMLID_498_">
				<g id="XMLID_499_">
					<g id="XMLID_500_">
						<g id="XMLID_501_">
							<path id="XMLID_2086_" style="fill:#FF433E;" d="M446.871,82.255h-29.85c-4.993,0-9.041-4.048-9.041-9.041v-29.85         c0-4.993,4.048-9.041,9.041-9.041h29.85c4.993,0,9.041,4.048,9.041,9.041v29.85         C455.912,78.207,451.864,82.255,446.871,82.255z"/>
						</g>
					</g>
					<g id="XMLID_504_">
						<g id="XMLID_505_">
							<path id="XMLID_2084_" style="fill:#FF433E;" d="M65.129,82.255h29.85c4.993,0,9.041-4.048,9.041-9.041v-29.85         c0-4.993-4.048-9.041-9.041-9.041h-29.85c-4.993,0-9.041,4.048-9.041,9.041v29.85C56.088,78.207,60.136,82.255,65.129,82.255         z"/>
						</g>
					</g>
				</g>
				<g id="XMLID_506_">
					<g id="XMLID_508_">
						<path id="XMLID_2081_" style="fill:#14C4BB;" d="M232.034,16.541v29.85c0,4.993,4.048,9.041,9.041,9.041h29.85        c4.993,0,9.041-4.048,9.041-9.041v-29.85c0-4.993-4.048-9.041-9.041-9.041h-29.85C236.082,7.5,232.034,11.548,232.034,16.541z        "/>
					</g>
				</g>
			</g>
			<g id="XMLID_509_">
				<g id="XMLID_511_">
					<g id="XMLID_512_">
						<g id="XMLID_513_">
							<path id="XMLID_2078_" style="fill:#FF433E;" d="M65.129,429.745h29.85c4.993,0,9.041,4.048,9.041,9.041v29.85         c0,4.993-4.048,9.041-9.041,9.041h-29.85c-4.993,0-9.041-4.048-9.041-9.041v-29.85         C56.088,433.793,60.136,429.745,65.129,429.745z"/>
						</g>
					</g>
					<g id="XMLID_514_">
						<g id="XMLID_516_">
							<path id="XMLID_2075_" style="fill:#FF433E;" d="M446.871,429.745h-29.85c-4.993,0-9.041,4.048-9.041,9.041v29.85         c0,4.993,4.048,9.041,9.041,9.041h29.85c4.993,0,9.041-4.048,9.041-9.041v-29.85         C455.912,433.793,451.864,429.745,446.871,429.745z"/>
						</g>
					</g>
				</g>
				<g id="XMLID_517_">
					<g id="XMLID_519_">
						<path id="XMLID_2072_" style="fill:#14C4BB;" d="M279.966,495.459v-29.85c0-4.993-4.048-9.041-9.041-9.041h-29.85        c-4.993,0-9.041,4.048-9.041,9.041v29.85c0,4.993,4.048,9.041,9.041,9.041h29.85        C275.918,504.5,279.966,500.452,279.966,495.459z"/>
					</g>
				</g>
			</g>
		</g>
	</g>
	<g id="XMLID_433_">
		<path id="XMLID_507_" d="M291.691,382.825H107.173v-35.183c0-4.142-3.358-7.5-7.5-7.5s-7.5,3.358-7.5,7.5v36.979    c0,7.281,5.923,13.204,13.205,13.204h44.787v47.127c0,0.694-0.565,1.259-1.259,1.259h-37.385v-7.425    c0-9.121-7.42-16.542-16.541-16.542h-29.85c-9.121,0-16.542,7.42-16.542,16.542v29.85c0,9.121,7.42,16.542,16.542,16.542h29.85    c9.121,0,16.541-7.42,16.541-16.542v-7.425h37.385c8.965,0,16.259-7.294,16.259-16.259v-47.127H248.5v51.242h-7.425    c-9.121,0-16.542,7.42-16.542,16.542v29.85c0,9.121,7.42,16.542,16.542,16.542h29.85c9.121,0,16.542-7.42,16.542-16.542v-29.85    c0-9.121-7.42-16.542-16.542-16.542H263.5v-51.242h28.191c4.142,0,7.5-3.358,7.5-7.5S295.833,382.825,291.691,382.825z     M96.521,468.636c0,0.85-0.691,1.542-1.541,1.542h-29.85c-0.85,0-1.542-0.691-1.542-1.542v-29.85c0-0.85,0.691-1.542,1.542-1.542    h29.85c0.85,0,1.541,0.691,1.541,1.542V468.636z M272.466,465.609v29.85c0,0.85-0.691,1.542-1.542,1.542h-29.85    c-0.85,0-1.542-0.691-1.542-1.542v-29.85c0-0.85,0.691-1.542,1.542-1.542h29.85C271.775,464.067,272.466,464.759,272.466,465.609z    "/>
		<path id="XMLID_549_" d="M141.607,153.61h151.014c4.142,0,7.5-3.358,7.5-7.5s-3.358-7.5-7.5-7.5H141.607    c-4.142,0-7.5,3.358-7.5,7.5S137.465,153.61,141.607,153.61z"/>
		<path id="XMLID_756_" d="M324.352,153.148c4.142,0,7.5-3.358,7.5-7.5v-0.819c0-4.142-3.358-7.5-7.5-7.5s-7.5,3.358-7.5,7.5v0.819    C316.852,149.791,320.21,153.148,324.352,153.148z"/>
		<path id="XMLID_440_" d="M347.37,153.148c4.142,0,7.5-3.358,7.5-7.5v-0.819c0-4.142-3.358-7.5-7.5-7.5s-7.5,3.358-7.5,7.5v0.819    C339.87,149.791,343.228,153.148,347.37,153.148z"/>
		<path id="XMLID_810_" d="M370.388,153.148c4.142,0,7.5-3.358,7.5-7.5v-0.819c0-4.142-3.358-7.5-7.5-7.5s-7.5,3.358-7.5,7.5v0.819    C362.888,149.791,366.246,153.148,370.388,153.148z"/>
		<path id="XMLID_813_" d="M446.871,26.822h-29.85c-9.121,0-16.541,7.42-16.541,16.542v7.425h-37.385    c-8.965,0-16.259,7.294-16.259,16.259v47.129H263.5V62.933h7.425c9.121,0,16.542-7.42,16.542-16.542v-29.85    C287.466,7.42,280.046,0,270.925,0h-29.85c-9.121,0-16.542,7.42-16.542,16.542v29.85c0,9.121,7.42,16.542,16.542,16.542h7.425    v51.244h-83.335V67.048c0-8.965-7.294-16.259-16.259-16.259h-37.385v-7.425c0-9.121-7.42-16.542-16.541-16.542h-29.85    c-9.121,0-16.542,7.42-16.542,16.542v29.85c0,9.121,7.42,16.542,16.542,16.542h29.85c9.121,0,16.541-7.42,16.541-16.542v-7.425    h37.385c0.694,0,1.259,0.565,1.259,1.259v47.129h-38.012c-11.017,0-19.98,8.963-19.98,19.979v182.868c0,4.142,3.358,7.5,7.5,7.5    s7.5-3.358,7.5-7.5V176.301h297.649v30.057c0,4.142,3.358,7.5,7.5,7.5s7.5-3.358,7.5-7.5v-72.202    c0-11.017-8.963-19.979-19.98-19.979h-38.007V67.048c0-0.694,0.565-1.259,1.259-1.259h37.385v7.425    c0,9.121,7.42,16.542,16.541,16.542h29.85c9.121,0,16.542-7.42,16.542-16.542v-29.85    C463.412,34.243,455.992,26.822,446.871,26.822z M239.534,46.391v-29.85c0-0.85,0.691-1.542,1.542-1.542h29.85    c0.85,0,1.542,0.691,1.542,1.542v29.85c0,0.85-0.691,1.542-1.542,1.542h-29.85C240.225,47.933,239.534,47.241,239.534,46.391z     M96.521,73.213c0,0.85-0.691,1.542-1.541,1.542h-29.85c-0.85,0-1.542-0.691-1.542-1.542v-29.85c0-0.85,0.691-1.542,1.542-1.542    h29.85c0.85,0,1.541,0.691,1.541,1.542V73.213z M404.822,134.156v27.145H107.173v-27.145c0-2.746,2.234-4.979,4.98-4.979h287.689    C402.588,129.177,404.822,131.411,404.822,134.156z M448.412,73.213c0,0.85-0.691,1.542-1.542,1.542h-29.85    c-0.85,0-1.541-0.691-1.541-1.542v-29.85c0-0.85,0.691-1.542,1.541-1.542h29.85c0.85,0,1.542,0.691,1.542,1.542V73.213z"/>
		<path id="XMLID_932_" d="M446.871,422.245h-29.85c-9.121,0-16.541,7.42-16.541,16.542v7.425h-37.385    c-0.694,0-1.259-0.565-1.259-1.259v-47.127h44.783c7.281,0,13.205-5.923,13.205-13.204V236.976c0-4.142-3.358-7.5-7.5-7.5    s-7.5,3.358-7.5,7.5v145.85h-82.514c-4.142,0-7.5,3.358-7.5,7.5s3.358,7.5,7.5,7.5h24.526v47.127    c0,8.965,7.294,16.259,16.259,16.259h37.385v7.425c0,9.121,7.42,16.542,16.541,16.542h29.85c9.121,0,16.542-7.42,16.542-16.542    v-29.85C463.412,429.666,455.992,422.245,446.871,422.245z M448.412,468.636c0,0.85-0.691,1.542-1.542,1.542h-29.85    c-0.85,0-1.541-0.691-1.541-1.542v-29.85c0-0.85,0.691-1.542,1.541-1.542h29.85c0.85,0,1.542,0.691,1.542,1.542V468.636z"/>
		<path id="XMLID_436_" d="M189.235,238.363c-2.929-2.929-7.678-2.929-10.606,0l-33.349,33.349c-2.929,2.929-2.929,7.678,0,10.606    l33.349,33.349c1.464,1.464,3.384,2.197,5.303,2.197s3.839-0.732,5.303-2.197c2.929-2.929,2.929-7.678,0-10.606l-28.045-28.045    l28.045-28.045C192.164,246.041,192.164,241.292,189.235,238.363z"/>
		<path id="XMLID_935_" d="M322.765,315.667c1.464,1.464,3.384,2.197,5.303,2.197s3.839-0.732,5.303-2.197l33.349-33.349    c2.929-2.929,2.929-7.678,0-10.606l-33.349-33.349c-2.929-2.929-7.678-2.929-10.606,0c-2.929,2.929-2.929,7.678,0,10.606    l28.045,28.045l-28.045,28.045C319.836,307.989,319.836,312.738,322.765,315.667z"/>
		<path id="XMLID_936_" d="M249.011,241.481c-3.654-1.951-8.197-0.572-10.149,3.083l-33.257,62.267    c-1.951,3.653-0.571,8.197,3.083,10.149c1.125,0.601,2.334,0.886,3.527,0.886c2.679,0,5.271-1.439,6.622-3.968l33.257-62.267    C254.045,247.977,252.665,243.433,249.011,241.481z"/>
		<path id="XMLID_434_" d="M246.38,308.782v0.757c0,4.142,3.358,7.5,7.5,7.5s7.5-3.358,7.5-7.5v-0.757c0-4.142-3.358-7.5-7.5-7.5    S246.38,304.64,246.38,308.782z"/>
		<path id="XMLID_939_" d="M285.808,309.539v-0.757c0-4.142-3.358-7.5-7.5-7.5s-7.5,3.358-7.5,7.5v0.757c0,4.142,3.358,7.5,7.5,7.5    S285.808,313.681,285.808,309.539z"/>
		<path id="XMLID_968_" d="M302.735,301.282c-4.142,0-7.5,3.358-7.5,7.5v0.757c0,4.142,3.358,7.5,7.5,7.5s7.5-3.358,7.5-7.5v-0.757    C310.235,304.64,306.877,301.282,302.735,301.282z"/>
	</g>
</g>















</svg>
