<?xml version="1.0" encoding="iso-8859-1"?>
<!-- Generator: Adobe Illustrator 19.0.0, SVG Export Plug-In . SVG Version: 6.00 Build 0)  -->
<svg xmlns="http://www.w3.org/2000/svg" xmlns:xlink="http://www.w3.org/1999/xlink" version="1.1" id="Layer_1" x="0px" y="0px" viewBox="0 0 512 512" style="enable-background:new 0 0 512 512;" xml:space="preserve" width="512" height="512">
<g id="XMLID_1195_">
	<g id="XMLID_1277_">
		<g id="XMLID_3000_">
			<g id="XMLID_3010_">
				<g id="XMLID_1285_">
					<path id="XMLID_1286_" style="fill:#88A5A0;" d="M348.769,479.752H163.231c-7.488,0-10.714-9.521-4.751-14.057       c14.546-11.046,24.067-24.849,30.284-38.085c11.359-24.126,11.75-46.316,11.75-46.316h110.97c0,0,0.391,22.19,11.75,46.316       c6.217,13.236,15.738,27.039,30.284,38.085C359.482,470.231,356.257,479.752,348.769,479.752z"/>
					<path id="XMLID_1287_" style="fill:#718987;" d="M319.303,418.241c-7.519-20.207-7.818-36.946-7.818-36.946h-110.97       c0,0-0.3,16.74-7.818,36.946H319.303z"/>
					<path id="XMLID_1291_" style="fill:#FF6A66;" d="M504.494,69.085v269.019H7.5V69.085c0-20.352,16.481-36.833,36.814-36.833       h423.365C488.012,32.252,504.494,48.733,504.494,69.085z"/>
					<rect id="XMLID_1294_" x="7.5" y="311.48" style="fill:#FF433E;" width="496.994" height="26.625"/>
					<rect id="XMLID_1295_" x="442.282" y="94.861" style="fill:#B0D1CF;" width="62.212" height="236.522"/>
					<rect id="XMLID_1296_" x="442.282" y="311.48" style="fill:#88A5A0;" width="62.212" height="19.903"/>
					<path id="XMLID_2688_" style="fill:#B0D1CF;" d="M488.208,400.239H23.792c-8.998,0-16.292-7.294-16.292-16.292v-52.564h497       v52.564C504.5,392.945,497.206,400.239,488.208,400.239z"/>
				</g>
			</g>
			<g id="XMLID_1297_">
				<circle id="XMLID_2686_" style="fill:#5089DD;" cx="256" cy="365.811" r="11.173"/>
			</g>
		</g>
		<g id="XMLID_2978_">
			<path id="XMLID_1302_" style="fill:#5089DD;" d="M288.795,248.151v83.232h-65.589v-83.232c0-2.357,0.245-4.643,0.714-6.857     c3.153-14.816,16.316-25.938,32.08-25.938c9.061,0,17.254,3.673,23.193,9.602c4.388,4.398,7.541,10.03,8.887,16.336     C288.55,243.509,288.795,245.794,288.795,248.151z"/>
			<rect id="XMLID_1305_" x="223.205" y="311.48" style="fill:#2358C1;" width="65.589" height="19.903"/>
			<path id="XMLID_1308_" style="fill:#2358C1;" d="M288.08,241.294c-9.275,5.908-20.285,9.336-32.08,9.336     c-11.795,0-22.805-3.428-32.08-9.336c3.153-14.816,16.316-25.938,32.08-25.938c9.061,0,17.254,3.673,23.193,9.602     C283.581,229.356,286.734,234.989,288.08,241.294z"/>
			<g id="XMLID_1309_">
				<path id="XMLID_1312_" style="fill:#FFD9AB;" d="M300.541,190.78c0,24.6-19.941,44.541-44.541,44.541      c-24.6,0-44.541-19.941-44.541-44.541c0-6.309,2.932-14.645,7.291-23.561c8.833-18.068,23.536-38.487,31.578-49.13      c2.842-3.766,8.502-3.766,11.35,0c10.044,13.3,30.501,41.883,36.9,62.048C299.827,184.063,300.541,187.67,300.541,190.78z"/>
				<path id="XMLID_1315_" style="fill:#EF9D45;" d="M298.578,180.137c-39.946,14.001-67.509-2.536-79.828-12.918      c8.833-18.068,23.536-38.487,31.578-49.13c2.842-3.766,8.502-3.766,11.35,0C271.722,131.39,292.18,159.973,298.578,180.137z"/>
			</g>
		</g>
	</g>
	<g id="XMLID_1392_">
		<path id="XMLID_1416_" d="M467.679,24.754h-55.37c-4.142,0-7.5,3.357-7.5,7.5s3.358,7.5,7.5,7.5h55.37    c16.168,0,29.321,13.154,29.321,29.322v18.281h-54.718c-4.142,0-7.5,3.357-7.5,7.5v229.025H296.298v-75.727    c0-6.825-1.687-13.391-4.904-19.273c10.23-9.509,16.646-23.068,16.646-38.103c0-3.698-0.78-7.877-2.168-12.388    c-0.059-0.246-0.131-0.492-0.217-0.736c-0.032-0.091-0.073-0.176-0.108-0.265c-6.252-19.308-23.189-44.364-37.885-63.823    c-2.787-3.689-7.037-5.806-11.661-5.806s-8.875,2.116-11.661,5.806c-18.42,24.389-40.379,57.581-40.379,77.212    c0,15.039,6.419,28.601,16.653,38.11c-3.214,5.891-4.913,12.482-4.913,19.266v75.727H15V205.918    c15.967,13.766,25.776,33.74,26.617,55.045c-8.897,3.129-15.295,11.611-15.295,21.565c0,12.603,10.253,22.855,22.855,22.855    c12.602,0,22.855-10.253,22.855-22.855c0-9.993-6.449-18.502-15.401-21.601c-0.989-29.645-16.505-57.192-41.26-73.481h64.811    c3.111,8.929,11.609,15.355,21.585,15.355c12.603,0,22.855-10.253,22.855-22.855s-10.253-22.855-22.855-22.855    c-9.975,0-18.473,6.427-21.585,15.355H15V69.076c0-16.168,13.153-29.322,29.321-29.322h337.37c4.142,0,7.5-3.357,7.5-7.5    s-3.358-7.5-7.5-7.5H44.321C19.882,24.754,0,44.637,0,69.076v314.871c0,13.119,10.673,23.792,23.792,23.792h61.232    c4.142,0,7.5-3.357,7.5-7.5s-3.358-7.5-7.5-7.5H23.792c-4.848,0-8.792-3.944-8.792-8.792v-45.064h482v45.064    c0,4.848-3.944,8.792-8.792,8.792h-34.565c-4.142,0-7.5,3.357-7.5,7.5s3.358,7.5,7.5,7.5h34.565    c13.119,0,23.792-10.673,23.792-23.792V69.076C512,44.637,492.118,24.754,467.679,24.754z M256.001,123.018    c15.42,20.459,26.883,38.913,32.716,52.291c-28.015,7.33-48.503-1.729-60.431-10.191    C234.705,153.178,244.191,138.687,256.001,123.018z M218.961,190.78c0-3.025,0.991-7.059,2.854-11.9    c10.745,7.157,26.432,14.195,46.569,14.195c7.582,0,15.799-1.005,24.617-3.371c0.025,0.371,0.04,0.731,0.04,1.076    c0,20.424-16.616,37.04-37.04,37.04S218.961,211.204,218.961,190.78z M256.001,242.82c8.224,0,16.004-1.925,22.926-5.337    c1.549,3.315,2.371,6.928,2.371,10.673v75.722h-50.597v-75.722c0-3.725,0.809-7.358,2.358-10.681    C239.985,240.892,247.771,242.82,256.001,242.82z M49.177,290.384c-4.332,0-7.855-3.524-7.855-7.855s3.524-7.855,7.855-7.855    c4.331,0,7.855,3.524,7.855,7.855S53.508,290.384,49.177,290.384z M101.768,172.091c4.332,0,7.855,3.524,7.855,7.855    s-3.524,7.855-7.855,7.855c-4.331,0-7.855-3.524-7.855-7.855S97.437,172.091,101.768,172.091z M449.782,323.883v-4.556h13.402    c4.142,0,7.5-3.357,7.5-7.5s-3.358-7.5-7.5-7.5h-13.402V293.35h13.402c4.142,0,7.5-3.357,7.5-7.5s-3.358-7.5-7.5-7.5h-13.402    v-10.978h13.402c4.142,0,7.5-3.357,7.5-7.5s-3.358-7.5-7.5-7.5h-13.402v-10.977h23.606c4.142,0,7.5-3.357,7.5-7.5    s-3.358-7.5-7.5-7.5h-23.606v-10.978h13.402c4.142,0,7.5-3.357,7.5-7.5s-3.358-7.5-7.5-7.5h-13.402V189.44h13.402    c4.142,0,7.5-3.357,7.5-7.5s-3.358-7.5-7.5-7.5h-13.402v-10.977h13.402c4.142,0,7.5-3.357,7.5-7.5s-3.358-7.5-7.5-7.5h-13.402    v-10.978h23.606c4.142,0,7.5-3.357,7.5-7.5s-3.358-7.5-7.5-7.5h-23.606v-20.129H497v221.525H449.782z"/>
		<path id="XMLID_1413_" d="M423.024,392.739H115.642c-4.142,0-7.5,3.357-7.5,7.5s3.358,7.5,7.5,7.5h72.663    c-4.907,16.644-14.72,37.088-34.353,51.987c-5.323,4.039-7.385,10.743-5.253,17.078c2.134,6.343,7.836,10.441,14.527,10.441    h185.547c6.69,0,12.393-4.099,14.527-10.441c2.132-6.335,0.07-13.039-5.253-17.078c-19.657-14.917-29.464-35.406-34.355-51.987    h99.332c4.142,0,7.5-3.357,7.5-7.5S427.167,392.739,423.024,392.739z M348.98,471.676c0.097,0.073,0.13,0.119,0.132,0.119    c0.03,0.108-0.061,0.37-0.146,0.43c0,0-0.053,0.021-0.192,0.021H163.227c-0.132,0-0.186-0.019-0.188-0.019    c-0.09-0.063-0.181-0.326-0.154-0.424c0-0.001,0.03-0.048,0.136-0.128c24.521-18.61,35.731-44.313,40.853-63.937h104.254    C313.226,427.268,324.419,453.037,348.98,471.676z"/>
		<path id="XMLID_1412_" d="M209.865,71.675v1.681c0,4.143,3.358,7.5,7.5,7.5s7.5-3.357,7.5-7.5v-1.681c0-4.143-3.358-7.5-7.5-7.5    S209.865,67.532,209.865,71.675z"/>
		<path id="XMLID_1411_" d="M248.5,71.675v1.681c0,4.143,3.358,7.5,7.5,7.5s7.5-3.357,7.5-7.5v-1.681c0-4.143-3.358-7.5-7.5-7.5    S248.5,67.532,248.5,71.675z"/>
		<path id="XMLID_1410_" d="M287.135,71.675v1.681c0,4.143,3.358,7.5,7.5,7.5s7.5-3.357,7.5-7.5v-1.681c0-4.143-3.358-7.5-7.5-7.5    S287.135,67.532,287.135,71.675z"/>
		<path id="XMLID_1394_" d="M274.673,365.812c0-10.297-8.377-18.674-18.673-18.674s-18.673,8.377-18.673,18.674    c0,10.296,8.377,18.673,18.673,18.673S274.673,376.107,274.673,365.812z M252.327,365.812c0-2.025,1.648-3.674,3.673-3.674    s3.673,1.648,3.673,3.674s-1.648,3.673-3.673,3.673S252.327,367.837,252.327,365.812z"/>
	</g>
</g>















</svg>
